<svg xmlns="http://www.w3.org/2000/svg" viewBox="0 0 96 96" width="96" height="96" role="img" aria-labelledby="uno-max-t"><title id="uno-max-t">Max: a server rack</title><g class="uno-ico" stroke-width="2.25" stroke-linejoin="round" stroke-linecap="round"><path d="M72.97 75.22L73.53 75.61L73.94 76.06L74.2 76.54L74.28 77.04L74.2 77.55L73.94 78.03L73.53 78.48L72.97 78.87L53.28 90.24L52.6 90.56L51.82 90.8L50.98 90.95L50.11 91L49.24 90.95L48.4 90.8L47.62 90.56L46.94 90.24L23.03 76.44L22.47 76.04L22.06 75.6L21.8 75.11L21.72 74.61L21.8 74.1L22.06 73.62L22.47 73.17L23.03 72.78L42.72 61.41L43.4 61.09L44.18 60.85L45.02 60.7L45.89 60.65L46.76 60.7L47.6 60.85L48.38 61.09L49.06 61.41Z" fill="rgba(67,67,201,.14)"/><path d="M29.36 73.59L27.25 74.81L27.25 72.86L29.36 71.64Z" fill="#18181b" stroke="#18181b"/><path d="M25.14 73.59L27.25 74.81L27.25 72.86L25.14 71.64Z" fill="#18181b" stroke="#18181b"/><path d="M27.25 70.42L29.36 71.64L27.25 72.86L25.14 71.64Z" fill="#18181b" stroke="#18181b"/><path d="M51.87 86.59L49.76 87.81L49.76 85.86L51.87 84.64Z" fill="#18181b" stroke="#18181b"/><path d="M47.65 86.59L49.76 87.81L49.76 85.86L47.65 84.64Z" fill="#18181b" stroke="#18181b"/><path d="M49.76 83.42L51.87 84.64L49.76 85.86L47.65 84.64Z" fill="#18181b" stroke="#18181b"/><path d="M70.51 75.83L68.4 77.04L68.4 75.1L70.51 73.88Z" fill="#18181b" stroke="#18181b"/><path d="M66.29 75.83L68.4 77.04L68.4 75.1L66.29 73.88Z" fill="#18181b" stroke="#18181b"/><path d="M68.4 72.66L70.51 73.88L68.4 75.1L66.29 73.88Z" fill="#18181b" stroke="#18181b"/><path d="M72.62 74.04L50.11 87.03L50.11 33.43L72.62 20.43Z" fill="#d2d2f6" stroke="#18181b"/><path d="M23.38 71.6L50.11 87.03L50.11 33.43L23.38 18Z" fill="#ebebfd" stroke="#18181b"/><path d="M45.89 5L72.62 20.43L50.11 33.43L23.38 18Z" fill="#ffffff" stroke="#18181b"/><path d="M54.68 38.91L54.57 38.95L54.48 38.95L54.4 38.91L54.35 38.82L54.33 38.71L54.33 38.71L54.35 38.57L54.4 38.43L54.48 38.3L54.57 38.18L54.68 38.1L68.05 30.38L68.16 30.34L68.25 30.34L68.33 30.39L68.38 30.47L68.4 30.59L68.4 30.59L68.38 30.72L68.33 30.86L68.25 31L68.16 31.11L68.05 31.19Z" fill="#c4c4ee"/><path d="M54.68 41.35L54.57 41.39L54.48 41.39L54.4 41.34L54.35 41.26L54.33 41.14L54.33 41.14L54.35 41.01L54.4 40.87L54.48 40.73L54.57 40.62L54.68 40.53L68.05 32.82L68.16 32.78L68.25 32.78L68.33 32.82L68.38 32.91L68.4 33.02L68.4 33.02L68.38 33.16L68.33 33.3L68.25 33.43L68.16 33.55L68.05 33.63Z" fill="#c4c4ee"/><path d="M54.68 43.78L54.57 43.83L54.48 43.83L54.4 43.78L54.35 43.7L54.33 43.58L54.33 43.58L54.35 43.45L54.4 43.3L54.48 43.17L54.57 43.05L54.68 42.97L68.05 35.26L68.16 35.21L68.25 35.21L68.33 35.26L68.38 35.34L68.4 35.46L68.4 35.46L68.38 35.59L68.33 35.74L68.25 35.87L68.16 35.98L68.05 36.07Z" fill="#c4c4ee"/><path d="M54.68 46.22L54.57 46.26L54.48 46.26L54.4 46.22L54.35 46.13L54.33 46.02L54.33 46.02L54.35 45.88L54.4 45.74L54.48 45.61L54.57 45.49L54.68 45.41L68.05 37.69L68.16 37.65L68.25 37.65L68.33 37.7L68.38 37.78L68.4 37.9L68.4 37.9L68.38 38.03L68.33 38.17L68.25 38.31L68.16 38.42L68.05 38.5Z" fill="#c4c4ee"/><path d="M47.58 81.92L47.71 81.97L47.83 81.97L47.92 81.91L47.98 81.81L48 81.67L48 35.54L47.98 35.38L47.92 35.21L47.83 35.04L47.71 34.91L47.58 34.81L25.91 22.3L25.78 22.25L25.66 22.25L25.57 22.3L25.51 22.41L25.49 22.54L25.49 68.68L25.51 68.84L25.57 69.01L25.66 69.17L25.78 69.31L25.91 69.41Z" fill="#18181b"/><path d="M46.8 42.04L46.93 42.09L47.05 42.09L47.15 42.03L47.21 41.93L47.23 41.79L47.23 36.15L47.21 35.99L47.15 35.82L47.05 35.65L46.93 35.52L46.8 35.42L26.69 23.8L26.56 23.75L26.44 23.75L26.35 23.81L26.29 23.91L26.26 24.05L26.26 29.69L26.29 29.85L26.35 30.02L26.44 30.19L26.56 30.32L26.69 30.42Z" fill="#f7f7ff"/><path d="M28.94 30.26L29 30.29L29.06 30.29L29.11 30.26L29.14 30.21L29.15 30.14L29.15 26.93L29.14 26.85L29.11 26.76L29.06 26.68L29 26.61L28.94 26.56L27.81 25.91L27.75 25.89L27.69 25.89L27.64 25.92L27.61 25.97L27.6 26.04L27.6 29.24L27.61 29.33L27.64 29.41L27.69 29.49L27.75 29.56L27.81 29.61Z" fill="#dcdcf8"/><path d="M31.26 31.6L31.32 31.63L31.38 31.63L31.43 31.6L31.46 31.55L31.47 31.48L31.47 28.27L31.46 28.19L31.43 28.1L31.38 28.02L31.32 27.95L31.26 27.9L30.13 27.25L30.07 27.23L30.01 27.23L29.96 27.26L29.93 27.31L29.92 27.38L29.92 30.59L29.93 30.67L29.96 30.75L30.01 30.83L30.07 30.9L30.13 30.95Z" fill="#dcdcf8"/><path d="M33.58 32.94L33.65 32.97L33.7 32.97L33.75 32.94L33.78 32.89L33.79 32.82L33.79 29.61L33.78 29.53L33.75 29.44L33.7 29.36L33.65 29.29L33.58 29.24L32.45 28.6L32.39 28.57L32.33 28.57L32.28 28.6L32.25 28.65L32.24 28.72L32.24 31.93L32.25 32.01L32.28 32.09L32.33 32.17L32.39 32.24L32.45 32.29Z" fill="#dcdcf8"/><path d="M35.9 34.28L35.97 34.31L36.03 34.31L36.07 34.28L36.1 34.23L36.11 34.16L36.11 30.95L36.1 30.87L36.07 30.78L36.03 30.7L35.97 30.63L35.9 30.59L34.78 29.94L34.71 29.91L34.65 29.91L34.61 29.94L34.58 29.99L34.56 30.06L34.56 33.27L34.58 33.35L34.61 33.43L34.65 33.51L34.71 33.58L34.78 33.63Z" fill="#dcdcf8"/><path d="M38.22 35.62L38.29 35.65L38.35 35.65L38.39 35.62L38.42 35.57L38.43 35.5L38.43 32.29L38.42 32.21L38.39 32.12L38.35 32.04L38.29 31.97L38.22 31.93L37.1 31.28L37.03 31.25L36.97 31.25L36.93 31.28L36.9 31.33L36.89 31.4L36.89 34.61L36.9 34.69L36.93 34.77L36.97 34.85L37.03 34.92L37.1 34.97Z" fill="#dcdcf8"/><path d="M40.54 36.96L40.61 36.99L40.67 36.99L40.71 36.96L40.74 36.91L40.75 36.84L40.75 33.63L40.74 33.55L40.71 33.46L40.67 33.38L40.61 33.32L40.54 33.27L39.42 32.62L39.35 32.59L39.29 32.59L39.25 32.62L39.22 32.67L39.21 32.74L39.21 35.95L39.22 36.03L39.25 36.11L39.29 36.19L39.35 36.26L39.42 36.31Z" fill="#dcdcf8"/><path d="M44.94 37.65L44.9 37.39L44.8 37.13L44.64 36.88L44.45 36.69L44.24 36.57L44.04 36.54L43.88 36.6L43.78 36.75L43.74 36.96L43.78 37.22L43.88 37.49L44.04 37.73L44.24 37.93L44.45 38.05L44.64 38.08L44.8 38.01L44.9 37.87Z" fill="#5b5be8"/><path d="M46.56 38.59L46.52 38.33L46.42 38.06L46.26 37.82L46.06 37.62L45.86 37.5L45.66 37.47L45.5 37.53L45.4 37.68L45.36 37.9L45.4 38.15L45.5 38.42L45.66 38.67L45.86 38.86L46.06 38.98L46.26 39.01L46.42 38.95L46.52 38.8Z" fill="#5b5be8"/><path d="M46.8 49.71L46.93 49.76L47.05 49.76L47.15 49.71L47.21 49.61L47.23 49.47L47.23 43.82L47.21 43.66L47.15 43.49L47.05 43.33L46.93 43.19L46.8 43.09L26.69 31.48L26.56 31.43L26.44 31.43L26.35 31.48L26.29 31.58L26.26 31.72L26.26 37.37L26.29 37.53L26.35 37.7L26.44 37.86L26.56 38L26.69 38.1Z" fill="#f7f7ff"/><path d="M28.94 37.94L29 37.96L29.06 37.96L29.11 37.93L29.14 37.88L29.15 37.81L29.15 34.61L29.14 34.52L29.11 34.44L29.06 34.36L29 34.29L28.94 34.24L27.81 33.59L27.75 33.56L27.69 33.57L27.64 33.59L27.61 33.64L27.6 33.71L27.6 36.92L27.61 37L27.64 37.09L27.69 37.17L27.75 37.24L27.81 37.29Z" fill="#dcdcf8"/><path d="M31.26 39.28L31.32 39.3L31.38 39.3L31.43 39.27L31.46 39.22L31.47 39.15L31.47 35.95L31.46 35.86L31.43 35.78L31.38 35.7L31.32 35.63L31.26 35.58L30.13 34.93L30.07 34.9L30.01 34.91L29.96 34.93L29.93 34.98L29.92 35.05L29.92 38.26L29.93 38.34L29.96 38.43L30.01 38.51L30.07 38.58L30.13 38.63Z" fill="#dcdcf8"/><path d="M33.58 40.62L33.65 40.64L33.7 40.64L33.75 40.61L33.78 40.56L33.79 40.49L33.79 37.29L33.78 37.2L33.75 37.12L33.7 37.04L33.65 36.97L33.58 36.92L32.45 36.27L32.39 36.24L32.33 36.25L32.28 36.27L32.25 36.32L32.24 36.39L32.24 39.6L32.25 39.68L32.28 39.77L32.33 39.85L32.39 39.92L32.45 39.97Z" fill="#dcdcf8"/><path d="M35.9 41.96L35.97 41.98L36.03 41.98L36.07 41.95L36.1 41.9L36.11 41.83L36.11 38.63L36.1 38.54L36.07 38.46L36.03 38.38L35.97 38.31L35.9 38.26L34.78 37.61L34.71 37.59L34.65 37.59L34.61 37.61L34.58 37.66L34.56 37.73L34.56 40.94L34.58 41.02L34.61 41.11L34.65 41.19L34.71 41.26L34.78 41.31Z" fill="#dcdcf8"/><path d="M38.22 43.3L38.29 43.32L38.35 43.32L38.39 43.29L38.42 43.24L38.43 43.17L38.43 39.97L38.42 39.89L38.39 39.8L38.35 39.72L38.29 39.65L38.22 39.6L37.1 38.95L37.03 38.93L36.97 38.93L36.93 38.95L36.9 39L36.89 39.07L36.89 42.28L36.9 42.36L36.93 42.45L36.97 42.53L37.03 42.6L37.1 42.65Z" fill="#dcdcf8"/><path d="M40.54 44.64L40.61 44.66L40.67 44.66L40.71 44.63L40.74 44.58L40.75 44.51L40.75 41.31L40.74 41.23L40.71 41.14L40.67 41.06L40.61 40.99L40.54 40.94L39.42 40.29L39.35 40.27L39.29 40.27L39.25 40.29L39.22 40.34L39.21 40.41L39.21 43.62L39.22 43.7L39.25 43.79L39.29 43.87L39.35 43.94L39.42 43.99Z" fill="#dcdcf8"/><path d="M44.94 45.33L44.9 45.07L44.8 44.8L44.64 44.56L44.45 44.36L44.24 44.24L44.04 44.21L43.88 44.27L43.78 44.42L43.74 44.64L43.78 44.89L43.88 45.16L44.04 45.41L44.24 45.6L44.45 45.72L44.64 45.75L44.8 45.69L44.9 45.54Z" fill="#5b5be8"/><path d="M46.56 46.26L46.52 46L46.42 45.74L46.26 45.49L46.06 45.3L45.86 45.18L45.66 45.15L45.5 45.21L45.4 45.36L45.36 45.57L45.4 45.83L45.5 46.1L45.66 46.34L45.86 46.54L46.06 46.66L46.26 46.69L46.42 46.62L46.52 46.48Z" fill="#c4c4ee"/><path d="M46.8 57.39L46.93 57.44L47.05 57.44L47.15 57.38L47.21 57.28L47.23 57.14L47.23 51.5L47.21 51.34L47.15 51.17L47.05 51.01L46.93 50.87L46.8 50.77L26.69 39.15L26.56 39.1L26.44 39.1L26.35 39.16L26.29 39.26L26.26 39.4L26.26 45.04L26.29 45.21L26.35 45.38L26.44 45.54L26.56 45.67L26.69 45.77Z" fill="#f7f7ff"/><path d="M28.94 45.61L29 45.64L29.06 45.64L29.11 45.61L29.14 45.56L29.15 45.49L29.15 42.28L29.14 42.2L29.11 42.11L29.06 42.03L29 41.97L28.94 41.92L27.81 41.27L27.75 41.24L27.69 41.24L27.64 41.27L27.61 41.32L27.6 41.39L27.6 44.6L27.61 44.68L27.64 44.76L27.69 44.84L27.75 44.91L27.81 44.96Z" fill="#dcdcf8"/><path d="M31.26 46.95L31.32 46.98L31.38 46.98L31.43 46.95L31.46 46.9L31.47 46.83L31.47 43.62L31.46 43.54L31.43 43.45L31.38 43.37L31.32 43.31L31.26 43.26L30.13 42.61L30.07 42.58L30.01 42.58L29.96 42.61L29.93 42.66L29.92 42.73L29.92 45.94L29.93 46.02L29.96 46.1L30.01 46.18L30.07 46.25L30.13 46.3Z" fill="#dcdcf8"/><path d="M33.58 48.29L33.65 48.32L33.7 48.32L33.75 48.29L33.78 48.24L33.79 48.17L33.79 44.96L33.78 44.88L33.75 44.79L33.7 44.71L33.65 44.65L33.58 44.6L32.45 43.95L32.39 43.92L32.33 43.92L32.28 43.95L32.25 44L32.24 44.07L32.24 47.28L32.25 47.36L32.28 47.44L32.33 47.52L32.39 47.59L32.45 47.64Z" fill="#dcdcf8"/><path d="M35.9 49.63L35.97 49.66L36.03 49.66L36.07 49.63L36.1 49.58L36.11 49.51L36.11 46.3L36.1 46.22L36.07 46.14L36.03 46.05L35.97 45.99L35.9 45.94L34.78 45.29L34.71 45.26L34.65 45.26L34.61 45.29L34.58 45.34L34.56 45.41L34.56 48.62L34.58 48.7L34.61 48.78L34.65 48.86L34.71 48.93L34.78 48.98Z" fill="#dcdcf8"/><path d="M38.22 50.97L38.29 51L38.35 51L38.39 50.97L38.42 50.92L38.43 50.85L38.43 47.64L38.42 47.56L38.39 47.48L38.35 47.39L38.29 47.33L38.22 47.28L37.1 46.63L37.03 46.6L36.97 46.6L36.93 46.63L36.9 46.68L36.89 46.75L36.89 49.96L36.9 50.04L36.93 50.12L36.97 50.2L37.03 50.27L37.1 50.32Z" fill="#dcdcf8"/><path d="M40.54 52.31L40.61 52.34L40.67 52.34L40.71 52.31L40.74 52.26L40.75 52.19L40.75 48.98L40.74 48.9L40.71 48.82L40.67 48.73L40.61 48.67L40.54 48.62L39.42 47.97L39.35 47.94L39.29 47.94L39.25 47.97L39.22 48.02L39.21 48.09L39.21 51.3L39.22 51.38L39.25 51.46L39.29 51.54L39.35 51.61L39.42 51.66Z" fill="#dcdcf8"/><path d="M44.94 53L44.9 52.75L44.8 52.48L44.64 52.23L44.45 52.04L44.24 51.92L44.04 51.89L43.88 51.95L43.78 52.1L43.74 52.31L43.78 52.57L43.88 52.84L44.04 53.08L44.24 53.28L44.45 53.4L44.64 53.43L44.8 53.37L44.9 53.22Z" fill="#5b5be8"/><path d="M46.56 53.94L46.52 53.68L46.42 53.41L46.26 53.17L46.06 52.97L45.86 52.85L45.66 52.82L45.5 52.88L45.4 53.03L45.36 53.25L45.4 53.5L45.5 53.77L45.66 54.02L45.86 54.21L46.06 54.33L46.26 54.36L46.42 54.3L46.52 54.15Z" fill="#5b5be8"/><path d="M46.8 65.06L46.93 65.12L47.05 65.11L47.15 65.06L47.21 64.96L47.23 64.82L47.23 59.18L47.21 59.01L47.15 58.84L47.05 58.68L46.93 58.54L46.8 58.44L26.69 46.83L26.56 46.78L26.44 46.78L26.35 46.83L26.29 46.93L26.26 47.07L26.26 52.72L26.29 52.88L26.35 53.05L26.44 53.21L26.56 53.35L26.69 53.45Z" fill="#f7f7ff"/><path d="M28.94 53.29L29 53.31L29.06 53.31L29.11 53.28L29.14 53.23L29.15 53.16L29.15 49.96L29.14 49.88L29.11 49.79L29.06 49.71L29 49.64L28.94 49.59L27.81 48.94L27.75 48.92L27.69 48.92L27.64 48.94L27.61 48.99L27.6 49.06L27.6 52.27L27.61 52.35L27.64 52.44L27.69 52.52L27.75 52.59L27.81 52.64Z" fill="#dcdcf8"/><path d="M31.26 54.63L31.32 54.65L31.38 54.65L31.43 54.63L31.46 54.57L31.47 54.51L31.47 51.3L31.46 51.22L31.43 51.13L31.38 51.05L31.32 50.98L31.26 50.93L30.13 50.28L30.07 50.26L30.01 50.26L29.96 50.28L29.93 50.33L29.92 50.4L29.92 53.61L29.93 53.69L29.96 53.78L30.01 53.86L30.07 53.93L30.13 53.98Z" fill="#dcdcf8"/><path d="M33.58 55.97L33.65 55.99L33.7 55.99L33.75 55.97L33.78 55.91L33.79 55.85L33.79 52.64L33.78 52.56L33.75 52.47L33.7 52.39L33.65 52.32L33.58 52.27L32.45 51.62L32.39 51.6L32.33 51.6L32.28 51.62L32.25 51.67L32.24 51.74L32.24 54.95L32.25 55.03L32.28 55.12L32.33 55.2L32.39 55.27L32.45 55.32Z" fill="#dcdcf8"/><path d="M35.9 57.31L35.97 57.33L36.03 57.33L36.07 57.31L36.1 57.25L36.11 57.19L36.11 53.98L36.1 53.9L36.07 53.81L36.03 53.73L35.97 53.66L35.9 53.61L34.78 52.96L34.71 52.94L34.65 52.94L34.61 52.96L34.58 53.01L34.56 53.08L34.56 56.29L34.58 56.37L34.61 56.46L34.65 56.54L34.71 56.61L34.78 56.66Z" fill="#dcdcf8"/><path d="M38.22 58.65L38.29 58.67L38.35 58.67L38.39 58.65L38.42 58.59L38.43 58.53L38.43 55.32L38.42 55.24L38.39 55.15L38.35 55.07L38.29 55L38.22 54.95L37.1 54.3L37.03 54.28L36.97 54.28L36.93 54.3L36.9 54.35L36.89 54.42L36.89 57.63L36.9 57.71L36.93 57.8L36.97 57.88L37.03 57.95L37.1 58Z" fill="#dcdcf8"/><path d="M40.54 59.99L40.61 60.01L40.67 60.01L40.71 59.99L40.74 59.94L40.75 59.87L40.75 56.66L40.74 56.58L40.71 56.49L40.67 56.41L40.61 56.34L40.54 56.29L39.42 55.64L39.35 55.62L39.29 55.62L39.25 55.64L39.22 55.69L39.21 55.76L39.21 58.97L39.22 59.05L39.25 59.14L39.29 59.22L39.35 59.29L39.42 59.34Z" fill="#dcdcf8"/><path d="M44.94 60.68L44.9 60.42L44.8 60.15L44.64 59.91L44.45 59.71L44.24 59.59L44.04 59.56L43.88 59.62L43.78 59.77L43.74 59.99L43.78 60.24L43.88 60.51L44.04 60.76L44.24 60.95L44.45 61.07L44.64 61.1L44.8 61.04L44.9 60.89Z" fill="#5b5be8"/><path d="M46.56 61.61L46.52 61.36L46.42 61.09L46.26 60.84L46.06 60.65L45.86 60.53L45.66 60.5L45.5 60.56L45.4 60.71L45.36 60.92L45.4 61.18L45.5 61.45L45.66 61.69L45.86 61.89L46.06 62.01L46.26 62.04L46.42 61.98L46.52 61.83Z" fill="#5b5be8"/><path d="M46.8 72.74L46.93 72.79L47.05 72.79L47.15 72.74L47.21 72.63L47.23 72.5L47.23 66.85L47.21 66.69L47.15 66.52L47.05 66.36L46.93 66.22L46.8 66.12L26.69 54.51L26.56 54.45L26.44 54.45L26.35 54.51L26.29 54.61L26.26 54.75L26.26 60.39L26.29 60.56L26.35 60.73L26.44 60.89L26.56 61.03L26.69 61.12Z" fill="#f7f7ff"/><path d="M28.94 60.96L29 60.99L29.06 60.99L29.11 60.96L29.14 60.91L29.15 60.84L29.15 57.63L29.14 57.55L29.11 57.47L29.06 57.38L29 57.32L28.94 57.27L27.81 56.62L27.75 56.59L27.69 56.59L27.64 56.62L27.61 56.67L27.6 56.74L27.6 59.95L27.61 60.03L27.64 60.11L27.69 60.19L27.75 60.26L27.81 60.31Z" fill="#dcdcf8"/><path d="M31.26 62.3L31.32 62.33L31.38 62.33L31.43 62.3L31.46 62.25L31.47 62.18L31.47 58.97L31.46 58.89L31.43 58.81L31.38 58.73L31.32 58.66L31.26 58.61L30.13 57.96L30.07 57.93L30.01 57.93L29.96 57.96L29.93 58.01L29.92 58.08L29.92 61.29L29.93 61.37L29.96 61.45L30.01 61.53L30.07 61.6L30.13 61.65Z" fill="#dcdcf8"/><path d="M33.58 63.64L33.65 63.67L33.7 63.67L33.75 63.64L33.78 63.59L33.79 63.52L33.79 60.31L33.78 60.23L33.75 60.15L33.7 60.07L33.65 60L33.58 59.95L32.45 59.3L32.39 59.27L32.33 59.27L32.28 59.3L32.25 59.35L32.24 59.42L32.24 62.63L32.25 62.71L32.28 62.79L32.33 62.87L32.39 62.94L32.45 62.99Z" fill="#dcdcf8"/><path d="M35.9 64.98L35.97 65.01L36.03 65.01L36.07 64.98L36.1 64.93L36.11 64.86L36.11 61.65L36.1 61.57L36.07 61.49L36.03 61.41L35.97 61.34L35.9 61.29L34.78 60.64L34.71 60.61L34.65 60.61L34.61 60.64L34.58 60.69L34.56 60.76L34.56 63.97L34.58 64.05L34.61 64.13L34.65 64.21L34.71 64.28L34.78 64.33Z" fill="#dcdcf8"/><path d="M38.22 66.32L38.29 66.35L38.35 66.35L38.39 66.32L38.42 66.27L38.43 66.2L38.43 62.99L38.42 62.91L38.39 62.83L38.35 62.75L38.29 62.68L38.22 62.63L37.1 61.98L37.03 61.95L36.97 61.95L36.93 61.98L36.9 62.03L36.89 62.1L36.89 65.31L36.9 65.39L36.93 65.47L36.97 65.56L37.03 65.62L37.1 65.67Z" fill="#dcdcf8"/><path d="M40.54 67.66L40.61 67.69L40.67 67.69L40.71 67.66L40.74 67.61L40.75 67.54L40.75 64.33L40.74 64.25L40.71 64.17L40.67 64.09L40.61 64.02L40.54 63.97L39.42 63.32L39.35 63.29L39.29 63.29L39.25 63.32L39.22 63.37L39.21 63.44L39.21 66.65L39.22 66.73L39.25 66.81L39.29 66.9L39.35 66.96L39.42 67.01Z" fill="#dcdcf8"/><path d="M44.94 68.35L44.9 68.1L44.8 67.83L44.64 67.58L44.45 67.39L44.24 67.27L44.04 67.24L43.88 67.3L43.78 67.45L43.74 67.66L43.78 67.92L43.88 68.19L44.04 68.43L44.24 68.63L44.45 68.75L44.64 68.78L44.8 68.72L44.9 68.57Z" fill="#5b5be8"/><path d="M46.56 69.29L46.52 69.03L46.42 68.76L46.26 68.52L46.06 68.32L45.86 68.2L45.66 68.17L45.5 68.23L45.4 68.38L45.36 68.6L45.4 68.85L45.5 69.12L45.66 69.37L45.86 69.56L46.06 69.68L46.26 69.71L46.42 69.65L46.52 69.5Z" fill="#c4c4ee"/><path d="M46.8 80.42L46.93 80.47L47.05 80.47L47.15 80.41L47.21 80.31L47.23 80.17L47.23 74.53L47.21 74.36L47.15 74.19L47.05 74.03L46.93 73.89L46.8 73.8L26.69 62.18L26.56 62.13L26.44 62.13L26.35 62.18L26.29 62.29L26.26 62.42L26.26 68.07L26.29 68.23L26.35 68.4L26.44 68.56L26.56 68.7L26.69 68.8Z" fill="#f7f7ff"/><path d="M28.94 68.64L29 68.66L29.06 68.66L29.11 68.64L29.14 68.59L29.15 68.52L29.15 65.31L29.14 65.23L29.11 65.14L29.06 65.06L29 64.99L28.94 64.94L27.81 64.29L27.75 64.27L27.69 64.27L27.64 64.29L27.61 64.34L27.6 64.41L27.6 67.62L27.61 67.7L27.64 67.79L27.69 67.87L27.75 67.94L27.81 67.99Z" fill="#dcdcf8"/><path d="M31.26 69.98L31.32 70L31.38 70L31.43 69.98L31.46 69.93L31.47 69.86L31.47 66.65L31.46 66.57L31.43 66.48L31.38 66.4L31.32 66.33L31.26 66.28L30.13 65.63L30.07 65.61L30.01 65.61L29.96 65.63L29.93 65.69L29.92 65.75L29.92 68.96L29.93 69.04L29.96 69.13L30.01 69.21L30.07 69.28L30.13 69.33Z" fill="#dcdcf8"/><path d="M33.58 71.32L33.65 71.34L33.7 71.34L33.75 71.32L33.78 71.27L33.79 71.2L33.79 67.99L33.78 67.91L33.75 67.82L33.7 67.74L33.65 67.67L33.58 67.62L32.45 66.97L32.39 66.95L32.33 66.95L32.28 66.97L32.25 67.03L32.24 67.09L32.24 70.3L32.25 70.38L32.28 70.47L32.33 70.55L32.39 70.62L32.45 70.67Z" fill="#dcdcf8"/><path d="M35.9 72.66L35.97 72.68L36.03 72.68L36.07 72.66L36.1 72.61L36.11 72.54L36.11 69.33L36.1 69.25L36.07 69.16L36.03 69.08L35.97 69.01L35.9 68.96L34.78 68.31L34.71 68.29L34.65 68.29L34.61 68.31L34.58 68.37L34.56 68.43L34.56 71.64L34.58 71.72L34.61 71.81L34.65 71.89L34.71 71.96L34.78 72.01Z" fill="#dcdcf8"/><path d="M38.22 74L38.29 74.02L38.35 74.02L38.39 74L38.42 73.95L38.43 73.88L38.43 70.67L38.42 70.59L38.39 70.5L38.35 70.42L38.29 70.35L38.22 70.3L37.1 69.65L37.03 69.63L36.97 69.63L36.93 69.65L36.9 69.71L36.89 69.77L36.89 72.98L36.9 73.06L36.93 73.15L36.97 73.23L37.03 73.3L37.1 73.35Z" fill="#dcdcf8"/><path d="M40.54 75.34L40.61 75.36L40.67 75.36L40.71 75.34L40.74 75.29L40.75 75.22L40.75 72.01L40.74 71.93L40.71 71.84L40.67 71.76L40.61 71.69L40.54 71.64L39.42 70.99L39.35 70.97L39.29 70.97L39.25 71L39.22 71.05L39.21 71.12L39.21 74.32L39.22 74.4L39.25 74.49L39.29 74.57L39.35 74.64L39.42 74.69Z" fill="#dcdcf8"/><path d="M44.94 76.03L44.9 75.77L44.8 75.5L44.64 75.26L44.45 75.06L44.24 74.94L44.04 74.91L43.88 74.98L43.78 75.12L43.74 75.34L43.78 75.6L43.88 75.86L44.04 76.11L44.24 76.3L44.45 76.42L44.64 76.45L44.8 76.39L44.9 76.24Z" fill="#5b5be8"/><path d="M46.56 76.96L46.52 76.71L46.42 76.44L46.26 76.19L46.06 76L45.86 75.88L45.66 75.85L45.5 75.91L45.4 76.06L45.36 76.27L45.4 76.53L45.5 76.8L45.66 77.04L45.86 77.24L46.06 77.36L46.26 77.39L46.42 77.33L46.52 77.18Z" fill="#5b5be8"/></g></svg>
